<svg
    xmlns="http://www.w3.org/2000/svg"
    width="90"
    height="90"
    viewBox="0 0 90 90"
    >
  <g>
    <path
      d="M5.46 9.06h79.08c1.98 0 3.59 1.61 3.59 3.59v64.7c0 1.98-1.61 3.59-3.59 3.59h-79.08c-1.98 0-3.59-1.61-3.59-3.59v-64.7c0-1.98 1.61-3.59 3.59-3.59z"
      stroke-width="2"
      stroke-miterlimit="4"
      fill="#2d2d30"
      stroke="#007acc"
      />
    <path
      d="M9.49 16.25h71.02c0.24 0 0.43 0.19 0.43 0.43v13.51c0 0.24-0.19 0.43-0.43 0.43h-71.02c-0.24 0-0.43-0.19-0.43-0.43v-13.51c0-0.24 0.19-0.43 0.43-0.43z"
      fill="#1e1e1e"
      />
    <path
      d="M12.03 19.84h1.44v7.19h-1.44z"
      fill="#00ff00"
      />
    <path
      d="M9.26 34.94h71.48c0.11 0 0.2 0.09 0.2 0.2v9.66c0 0.11-0.09 0.2-0.2 0.2h-71.48c-0.11 0-0.2-0.09-0.2-0.2v-9.66c0-0.11 0.09-0.2 0.2-0.2z"
      fill="#094771"
      />
    <path
      d="M9.26 47.88h71.48c0.11 0 0.2 0.09 0.2 0.2v9.66c0 0.11-0.09 0.2-0.2 0.2h-71.48c-0.11 0-0.2-0.09-0.2-0.2v-9.66c0-0.11 0.09-0.2 0.2-0.2z"
      fill="#1e1e1e"
      />
    <path
      d="M9.26 60.81h71.48c0.11 0 0.2 0.09 0.2 0.21v9.66c0 0.11-0.09 0.2-0.2 0.2h-71.48c-0.11 0-0.2-0.09-0.2-0.2v-9.66c0-0.12 0.09-0.21 0.2-0.21z"
      fill="#1e1e1e"
      />
    <path
      d="M13.37 37.81h28.75v1.44h-28.75z"
      fill="#87ceeb"
      />
    <path
      d="M45 37.81h14.38v1.44h-14.38z"
      opacity="0.5"
      fill="#87ceeb"
      />
    <path
      d="M13.37 50.75h21.57v1.44h-21.57z"
      fill="#808080"
      />
    <path
      d="M37.81 50.75h11.5v1.44h-11.5z"
      opacity="0.5"
      fill="#808080"
      />
    <path
      d="M13.37 63.69h25.88v1.44h-25.88z"
      fill="#808080"
      />
    <path
      d="M42.12 63.69h17.26v1.44h-17.26z"
      opacity="0.5"
      fill="#808080"
      />
  </g>
</svg>